HIERARCHY
ROOT Hips
{
	OFFSET 0.000000 89.005402 0.000000
	CHANNELS 6 Xposition Yposition Zposition Xrotation Yrotation Zrotation
	JOINT Spine
	{
		OFFSET 0.116900 10.681000 0.373400
		CHANNELS 3 Xrotation Yrotation Zrotation
		JOINT Spine1
		{
			OFFSET 0.000000 13.840401 0.053500
			CHANNELS 3 Xrotation Yrotation Zrotation
			JOINT Spine2
			{
				OFFSET 0.000000 14.712700 -0.366200
				CHANNELS 3 Xrotation Yrotation Zrotation
				JOINT Neck
				{
					OFFSET 0.000000 35.415497 -3.314200
					CHANNELS 3 Xrotation Yrotation Zrotation
					JOINT Head
					{
						OFFSET 0.000000 16.899200 1.218300
						CHANNELS 3 Xrotation Yrotation Zrotation
						JOINT HeadTop_End
						{
							OFFSET 0.000000 22.206207 2.192500
							CHANNELS 3 Xrotation Yrotation Zrotation
							End Site
							{
								OFFSET 0.000000 22.314178 0.000000
							}
						}
					}
				}
				JOINT LeftShoulder
				{
					OFFSET 12.896400 26.716293 -4.548400
					CHANNELS 3 Xrotation Yrotation Zrotation
					JOINT LeftArm
					{
						OFFSET 19.027000 -4.857010 -1.718400
						CHANNELS 3 Xrotation Yrotation Zrotation
						JOINT LeftForeArm
						{
							OFFSET 24.179897 0.000000 0.000000
							CHANNELS 3 Xrotation Yrotation Zrotation
							JOINT LeftHand
							{
								OFFSET 27.156403 0.000000 0.000000
								CHANNELS 3 Xrotation Yrotation Zrotation
								JOINT LeftHandIndex1
								{
									OFFSET 16.441200 0.000000 0.000000
									CHANNELS 3 Xrotation Yrotation Zrotation
									JOINT LeftHandIndex2
									{
										OFFSET 4.821899 0.000000 0.000000
										CHANNELS 3 Xrotation Yrotation Zrotation
										JOINT LeftHandIndex3
										{
											OFFSET 6.386497 0.000000 0.000000
											CHANNELS 3 Xrotation Yrotation Zrotation
											JOINT LeftHandIndex4
											{
												OFFSET 5.188988 0.000000 0.000000
												CHANNELS 3 Xrotation Yrotation Zrotation
												End Site
												{
													OFFSET -0.178703 5.185913 0.000177
												}
											}
										}
									}
								}
								JOINT LeftHandThumb1
								{
									OFFSET 6.534897 -5.032593 5.900300
									CHANNELS 3 Xrotation Yrotation Zrotation
									JOINT LeftHandThumb2
									{
										OFFSET 3.818176 -2.204422 2.204423
										CHANNELS 3 Xrotation Yrotation Zrotation
										JOINT LeftHandThumb3
										{
											OFFSET 3.252098 -1.877594 1.877601
											CHANNELS 3 Xrotation Yrotation Zrotation
											JOINT LeftHandThumb4
											{
												OFFSET 5.251778 -3.032120 3.032117
												CHANNELS 3 Xrotation Yrotation Zrotation
												End Site
												{
													OFFSET 0.000023 6.780014 0.000000
												}
											}
										}
									}
								}
							}
						}
					}
				}
				JOINT RightShoulder
				{
					OFFSET -12.896300 26.716293 -4.548400
					CHANNELS 3 Xrotation Yrotation Zrotation
					JOINT RightArm
					{
						OFFSET -19.027000 -4.857010 -1.718400
						CHANNELS 3 Xrotation Yrotation Zrotation
						JOINT RightForeArm
						{
							OFFSET -24.179897 0.000000 0.000000
							CHANNELS 3 Xrotation Yrotation Zrotation
							JOINT RightHand
							{
								OFFSET -27.156403 0.000000 0.000000
								CHANNELS 3 Xrotation Yrotation Zrotation
								JOINT RightHandThumb1
								{
									OFFSET -6.591202 -4.852203 5.988100
									CHANNELS 3 Xrotation Yrotation Zrotation
									JOINT RightHandThumb2
									{
										OFFSET -3.818176 -2.204422 2.204423
										CHANNELS 3 Xrotation Yrotation Zrotation
										JOINT RightHandThumb3
										{
											OFFSET -3.252098 -1.877594 1.877601
											CHANNELS 3 Xrotation Yrotation Zrotation
											JOINT RightHandThumb4
											{
												OFFSET -5.251778 -3.032120 3.032117
												CHANNELS 3 Xrotation Yrotation Zrotation
												End Site
												{
													OFFSET -0.000023 6.780014 0.000000
												}
											}
										}
									}
								}
								JOINT RightHandIndex1
								{
									OFFSET -16.029404 0.000000 0.000000
									CHANNELS 3 Xrotation Yrotation Zrotation
									JOINT RightHandIndex2
									{
										OFFSET -5.213303 0.000000 0.000000
										CHANNELS 3 Xrotation Yrotation Zrotation
										JOINT RightHandIndex3
										{
											OFFSET -6.386528 0.000000 0.000000
											CHANNELS 3 Xrotation Yrotation Zrotation
											JOINT RightHandIndex4
											{
												OFFSET -5.189026 0.000000 0.000000
												CHANNELS 3 Xrotation Yrotation Zrotation
												End Site
												{
													OFFSET 0.236702 5.183624 0.001972
												}
											}
										}
									}
								}
							}
						}
					}
				}
			}
		}
	}
	JOINT LeftUpLeg
	{
		OFFSET 14.073000 -7.904099 -1.463000
		CHANNELS 3 Xrotation Yrotation Zrotation
		JOINT LeftLeg
		{
			OFFSET -0.109806 -34.073280 4.093200
			CHANNELS 3 Xrotation Yrotation Zrotation
			JOINT LeftFoot
			{
				OFFSET 0.109806 -29.899420 -6.319000
				CHANNELS 3 Xrotation Yrotation Zrotation
				JOINT LeftToeBase
				{
					OFFSET 1.551100 -14.988700 20.535801
					CHANNELS 3 Xrotation Yrotation Zrotation
					JOINT LeftToe_End
					{
						OFFSET 0.221200 0.570800 13.248301
						CHANNELS 3 Xrotation Yrotation Zrotation
						End Site
						{
							OFFSET 0.000000 13.262435 0.000000
						}
					}
				}
			}
		}
	}
	JOINT RightUpLeg
	{
		OFFSET -13.839300 -7.904099 -1.463000
		CHANNELS 3 Xrotation Yrotation Zrotation
		JOINT RightLeg
		{
			OFFSET 0.109694 -34.073219 4.093300
			CHANNELS 3 Xrotation Yrotation Zrotation
			JOINT RightFoot
			{
				OFFSET -0.109694 -29.899384 -6.319200
				CHANNELS 3 Xrotation Yrotation Zrotation
				JOINT RightToeBase
				{
					OFFSET -1.551100 -14.988700 20.535801
					CHANNELS 3 Xrotation Yrotation Zrotation
					JOINT RightToe_End
					{
						OFFSET -0.221200 0.570900 13.248299
						CHANNELS 3 Xrotation Yrotation Zrotation
						End Site
						{
							OFFSET 0.000000 13.262440 0.000000
						}
					}
				}
			}
		}
	}
}
MOTION
Frames: 9
Frame Time: 0.033333
-1.200646 90.381104 89.785118 -21.928360 -6.813034 -1.685498 7.761155 -1.257014 -0.775799 15.520562 -2.206119 -1.104568 15.520568 -2.206120 -1.104569 -19.951959 4.460108 -4.124342 -21.181499 -2.224357 10.083348 -0.000001 0.000001 -0.000000 -0.087356 -6.906616 31.322879 -50.650767 -22.484011 -10.775235 -10.553558 -37.739602 2.870408 16.915011 5.008899 45.888879 -7.847218 -3.444986 -67.091247 -4.890347 2.724782 -36.316577 -0.000001 0.000012 -0.000002 -0.000001 -0.000000 -0.000001 -11.360191 -10.015397 28.397683 19.621119 23.755275 -10.341703 -0.000003 0.000010 -0.000007 0.000000 -0.000002 -0.000002 15.493499 43.863253 -41.196593 -43.526429 5.311649 -10.799143 -20.711632 35.692991 7.890414 6.133117 8.916078 -49.821975 15.333566 1.500907 -10.491458 -10.396764 -3.067652 -10.223939 -0.000008 0.000003 0.000006 -0.000000 0.000000 0.000001 0.919903 3.496431 64.452192 1.727774 9.561659 38.866290 -0.000004 0.000000 0.000004 0.000001 -0.000001 0.000000 -81.955235 13.905433 29.697731 112.347166 -16.595381 -1.497144 -23.007820 -4.037019 13.872704 -54.016503 -2.388819 -4.147092 -0.000002 -0.000000 -0.000000 -101.948742 -11.875956 -34.490966 116.497359 18.957185 -0.779132 -16.032860 0.476685 -2.056137 -44.958272 7.308468 14.166726 0.000002 0.000001 -0.000001 
-1.268713 89.561218 90.295303 -22.388470 -6.803577 -1.631918 7.775195 -1.237463 -0.756997 15.549187 -2.157198 -1.062824 15.549180 -2.157198 -1.062823 -17.834076 4.159635 -3.696291 -21.671570 -1.889123 8.921325 -0.000004 0.000000 -0.000000 0.120688 -6.706176 30.946733 -50.789410 -23.824016 -9.178932 -10.651362 -35.398794 1.851995 15.823566 3.954344 45.967822 -7.847198 -3.445000 -67.091220 -4.890357 2.724764 -36.316570 -0.000001 0.000012 -0.000003 0.000000 0.000000 0.000001 -11.360177 -10.015401 28.397707 19.621095 23.755258 -10.341688 -0.000002 0.000009 -0.000007 0.000000 0.000001 0.000000 15.382657 42.059052 -41.298677 -42.791210 7.083962 -11.275334 -20.873149 33.574437 8.015834 4.642850 9.574895 -49.827210 15.333556 1.500895 -10.491444 -10.396774 -3.067649 -10.223940 -0.000008 0.000003 0.000007 -0.000000 -0.000000 0.000001 0.919892 3.496411 64.452199 1.727773 9.561663 38.866304 -0.000003 0.000001 0.000004 0.000000 0.000001 0.000000 -82.100281 13.719817 29.765210 114.223207 -16.877862 -1.176180 -24.872301 -4.242438 13.771360 -53.203458 -2.381874 -3.767102 -0.000001 0.000000 -0.000000 -102.807010 -11.452582 -34.584745 118.292401 19.126304 -1.140172 -17.136569 0.514170 -2.136662 -44.169874 7.119101 13.687347 0.000000 -0.000001 -0.000000 
-1.387140 88.655090 90.862549 -22.906525 -6.780070 -1.566883 7.772521 -1.219445 -0.738437 15.544489 -2.110320 -1.018095 15.544496 -2.110319 -1.018095 -15.838468 3.914539 -3.366519 -22.079707 -1.628066 7.904726 -0.000000 0.000000 -0.000000 0.327485 -6.497294 30.656027 -51.050811 -25.465355 -7.798616 -10.743266 -32.190460 0.941168 14.923347 2.343709 46.000757 -7.847201 -3.444996 -67.091220 -4.890348 2.724774 -36.316563 -0.000000 0.000012 -0.000002 -0.000000 0.000000 0.000001 -11.360183 -10.015418 28.397710 19.621113 23.755282 -10.341698 -0.000002 0.000008 -0.000008 0.000001 0.000001 -0.000001 15.353936 39.955989 -41.881866 -42.373186 8.937530 -10.925012 -21.157807 31.212715 7.634209 3.519740 10.368991 -49.463981 15.333561 1.500917 -10.491459 -10.396759 -3.067636 -10.223949 -0.000007 0.000003 0.000007 -0.000000 -0.000000 0.000001 0.919881 3.496431 64.452185 1.727774 9.561654 38.866304 -0.000003 0.000002 0.000005 0.000001 -0.000002 -0.000001 -82.107295 13.558268 29.897398 116.273070 -17.275790 -0.857726 -27.258791 -4.450935 13.735762 -52.103849 -2.438566 -3.461919 0.000000 -0.000000 0.000000 -103.718301 -11.126052 -34.718224 120.301597 19.333397 -1.536281 -18.580831 0.593964 -2.379975 -43.153658 6.881839 13.127075 -0.000001 -0.000002 0.000001 
-1.531346 87.753868 91.441597 -23.331696 -6.736234 -1.513132 7.760797 -1.202371 -0.723089 15.521692 -2.062604 -0.975796 15.521685 -2.062601 -0.975797 -14.379396 3.720118 -2.932499 -22.161715 -1.312280 6.963158 0.000002 -0.000001 -0.000000 0.430459 -5.919363 30.711867 -51.566518 -27.167743 -7.189401 -10.968616 -28.805233 0.423169 14.306508 0.510387 45.866848 -7.847212 -3.444992 -67.091234 -4.890348 2.724776 -36.316563 -0.000001 0.000013 -0.000004 -0.000000 0.000000 -0.000001 -11.360176 -10.015409 28.397702 19.621115 23.755275 -10.341707 -0.000002 0.000007 -0.000008 0.000001 -0.000001 -0.000001 14.891877 37.277147 -42.321990 -42.489135 11.293568 -9.708474 -21.487609 28.906716 6.864655 2.731238 11.123541 -48.855541 15.333566 1.500898 -10.491459 -10.396761 -3.067642 -10.223934 -0.000007 0.000003 0.000007 0.000000 0.000000 0.000000 0.919894 3.496415 64.452199 1.727771 9.561667 38.866297 -0.000002 0.000000 0.000005 0.000000 -0.000001 -0.000000 -82.092795 13.407532 30.111545 118.289943 -17.701719 -0.601182 -29.870996 -4.690210 13.761136 -50.864221 -2.597403 -3.277816 -0.000001 0.000000 -0.000000 -104.661659 -10.868118 -34.815137 122.295316 19.486318 -1.899357 -20.146606 0.700593 -2.693105 -42.082090 6.610782 12.587085 -0.000000 -0.000002 0.000000 
-1.682209 86.924950 92.006584 -23.572164 -6.658900 -1.492316 7.758910 -1.185090 -0.717652 15.518511 -2.009419 -0.947773 15.518494 -2.009416 -0.947772 -13.629183 3.555545 -2.260418 -21.825224 -0.848366 6.009344 0.000001 0.000000 0.000000 0.385578 -4.885477 31.276799 -52.230860 -28.339495 -7.397304 -11.498506 -26.447710 0.373706 13.888794 -0.923354 45.417141 -7.847206 -3.444998 -67.091227 -4.890351 2.724763 -36.316570 -0.000000 0.000012 -0.000005 0.000000 -0.000000 0.000001 -11.360179 -10.015405 28.397714 19.621096 23.755282 -10.341694 -0.000002 0.000010 -0.000009 0.000000 -0.000002 0.000001 13.810107 34.048838 -42.201072 -43.168448 14.084718 -7.996191 -21.873495 27.119823 5.980068 2.133763 11.638932 -48.124256 15.333561 1.500897 -10.491457 -10.396760 -3.067629 -10.223939 -0.000008 0.000003 0.000008 -0.000000 -0.000000 0.000001 0.919884 3.496421 64.452199 1.727777 9.561644 38.866293 -0.000003 0.000001 0.000005 0.000000 -0.000002 -0.000001 -82.216251 13.250974 30.416017 120.150390 -18.183943 -0.393822 -32.315192 -4.985597 13.876883 -49.667537 -2.778835 -3.126412 -0.000001 0.000000 0.000000 -105.642433 -10.619608 -34.853779 124.119359 19.535079 -2.186823 -21.558116 0.779949 -2.911666 -41.164468 6.393573 12.113803 0.000001 0.000000 -0.000000 
-1.828462 86.219749 92.533211 -23.618770 -6.541063 -1.507576 7.774983 -1.165853 -0.724327 15.551098 -1.950123 -0.941743 15.551099 -1.950123 -0.941742 -13.497484 3.405386 -1.391040 -21.156347 -0.255358 5.023927 -0.000001 -0.000000 -0.000000 0.205742 -3.564357 32.322924 -52.825509 -28.543106 -8.193681 -12.350256 -25.920493 0.723910 13.564232 -1.522809 44.619942 -7.847211 -3.444994 -67.091220 -4.890351 2.724768 -36.316563 -0.000001 0.000012 -0.000001 -0.000000 -0.000000 -0.000001 -11.360187 -10.015411 28.397691 19.621120 23.755263 -10.341716 -0.000002 0.000009 -0.000008 0.000000 -0.000000 0.000001 12.304539 30.525423 -41.557121 -44.274420 16.887807 -6.079556 -22.333954 26.178006 5.160041 1.646861 11.812634 -47.373424 15.333548 1.500910 -10.491455 -10.396763 -3.067644 -10.223927 -0.000007 0.000003 0.000007 -0.000001 -0.000000 0.000000 0.919868 3.496426 64.452199 1.727773 9.561643 38.866297 -0.000003 0.000000 0.000005 0.000000 -0.000002 -0.000001 -82.522523 13.081021 30.780408 121.764624 -18.842532 -0.197346 -34.321868 -5.330362 14.113800 -48.611576 -2.858173 -2.861638 -0.000000 0.000000 -0.000000 -106.575553 -10.352443 -34.861347 125.680480 19.537367 -2.377622 -22.736885 0.788309 -2.941013 -40.469021 6.301609 11.692047 -0.000002 -0.000000 0.000000 
-1.962113 85.680099 92.985672 -23.501129 -6.376310 -1.564940 7.784509 -1.143085 -0.725904 15.570601 -1.886604 -0.929375 15.570598 -1.886605 -0.929374 -13.841297 3.224254 -0.293925 -20.234698 0.481867 3.938761 0.000001 0.000000 0.000000 -0.095199 -2.105325 33.864983 -53.315063 -27.897834 -9.743883 -13.412776 -26.705025 1.426359 13.371809 -1.551308 43.711121 -7.847198 -3.445009 -67.091227 -4.890345 2.724781 -36.316577 -0.000001 0.000012 -0.000003 0.000000 0.000000 0.000001 -11.360176 -10.015417 28.397703 19.621112 23.755277 -10.341697 -0.000002 0.000008 -0.000007 -0.000000 -0.000000 0.000002 10.563680 26.921278 -40.336628 -45.721850 20.100039 -4.095145 -22.553288 25.432226 4.337914 1.316421 11.909946 -46.704420 15.333556 1.500899 -10.491457 -10.396771 -3.067644 -10.223931 -0.000007 0.000003 0.000007 0.000000 -0.000000 -0.000002 0.919877 3.496420 64.452199 1.727774 9.561643 38.866290 -0.000002 0.000002 0.000004 -0.000000 -0.000000 0.000001 -82.936815 12.880945 31.136285 123.040325 -19.688007 -0.009210 -35.837876 -5.677027 14.430448 -47.698390 -2.819073 -2.463250 -0.000001 0.000002 -0.000001 -107.304150 -10.129691 -34.876264 126.909423 19.603037 -2.476001 -23.801425 0.750180 -2.865053 -39.932175 6.271286 11.305136 -0.000000 0.000001 0.000000 
-2.081835 85.329414 93.310249 -23.332191 -6.163870 -1.621457 7.778167 -1.113774 -0.691549 15.558481 -1.820301 -0.858259 15.558474 -1.820302 -0.858258 -13.884022 3.040210 0.456190 -19.659950 1.010753 2.994544 0.000003 0.000000 -0.000000 -0.297559 -1.251890 35.203584 -53.414303 -26.875153 -11.011316 -14.223671 -27.722758 2.069436 13.120685 -1.484519 43.040362 -7.847192 -3.445001 -67.091227 -4.890350 2.724765 -36.316573 -0.000001 0.000012 -0.000004 -0.000000 0.000000 0.000001 -11.360182 -10.015403 28.397690 19.621108 23.755270 -10.341690 -0.000002 0.000009 -0.000006 -0.000000 -0.000001 -0.000001 9.486972 24.414562 -39.304993 -46.710605 22.335931 -2.995757 -22.635810 25.263417 3.695316 1.036565 11.717423 -46.115392 15.333568 1.500911 -10.491464 -10.396769 -3.067638 -10.223936 -0.000008 0.000003 0.000007 -0.000000 -0.000000 0.000002 0.919891 3.496418 64.452199 1.727780 9.561669 38.866286 -0.000003 -0.000001 0.000004 -0.000000 0.000000 0.000002 -83.301151 12.689294 31.377261 123.875999 -20.493622 0.139786 -36.829971 -5.954299 14.716433 -46.983502 -2.727176 -2.081824 0.000003 0.000000 -0.000000 -107.669948 -10.011692 -34.947179 127.766953 19.778785 -2.500977 -24.869006 0.728718 -2.844527 -39.456244 6.232147 10.970130 -0.000000 -0.000001 0.000000 
-2.181895 85.166168 93.492798 -23.139634 -5.888036 -1.679647 7.737608 -1.076794 -0.612220 15.478240 -1.748053 -0.711727 15.478231 -1.748056 -0.711727 -13.528487 2.803341 0.982087 -19.444510 1.382236 2.124200 0.000002 -0.000000 -0.000000 -0.404383 -0.862559 36.404649 -53.324004 -25.878465 -12.315384 -14.799104 -28.230762 2.557108 12.878179 -1.672201 42.850834 -7.847198 -3.445007 -67.091207 -4.890345 2.724769 -36.316580 -0.000001 0.000012 -0.000002 0.000000 0.000000 -0.000000 -11.360184 -10.015405 28.397695 19.621122 23.755253 -10.341702 -0.000003 0.000009 -0.000008 -0.000000 -0.000002 -0.000001 8.880341 22.791655 -38.241662 -47.361683 24.382484 -2.536893 -22.333605 24.944027 3.050131 0.910959 11.511684 -45.644122 15.333561 1.500899 -10.491468 -10.396771 -3.067642 -10.223931 -0.000008 0.000003 0.000005 0.000000 -0.000000 0.000000 0.919879 3.496427 64.452192 1.727778 9.561653 38.866286 -0.000003 0.000002 0.000006 0.000000 -0.000000 0.000001 -83.667399 12.521549 31.467194 124.276849 -21.058771 0.251316 -37.208757 -6.096196 14.895775 -46.560635 -2.673087 -1.832333 -0.000000 -0.000001 -0.000000 -107.726481 -10.029895 -35.066058 128.262784 19.934684 -2.486975 -25.829901 0.760959 -2.967165 -39.120752 6.116935 10.787614 0.000001 -0.000001 -0.000000 
